HIERARCHY
ROOT Hips
{
  OFFSET 53.8365 85.0591 4.78294
  CHANNELS 6 Xposition Yposition Zposition Zrotation Xrotation Yrotation
  JOINT spine
  {
    OFFSET 0 6.3926 0.367606
    CHANNELS 3 Zrotation Xrotation Yrotation
    JOINT spine1
    {
      OFFSET 0 9.17611 0
      CHANNELS 3 Zrotation Xrotation Yrotation
      JOINT spine2
      {
        OFFSET 0 8.79238 0
        CHANNELS 3 Zrotation Xrotation Yrotation
        JOINT Neck
        {
          OFFSET 0 22.5737 1.07624
          CHANNELS 3 Zrotation Xrotation Yrotation
          JOINT Head
          {
            OFFSET 0 6.82011 0
            CHANNELS 3 Zrotation Xrotation Yrotation
            End Site
            {
              OFFSET 0 16.5085 -5.44427
            }
          }
        }
        JOINT RightShoulder
        {
          OFFSET -3.70221 9.49509 -0.515508
          CHANNELS 3 Zrotation Xrotation Yrotation
          JOINT RightArm
          {
            OFFSET 0 12.4537 0
            CHANNELS 3 Zrotation Xrotation Yrotation
            JOINT RightArmRoll
            {
              OFFSET 0 6.28686 0
              CHANNELS 3 Zrotation Xrotation Yrotation
              JOINT RightForeArm
              {
                OFFSET 0 18.3114 0
                CHANNELS 3 Zrotation Xrotation Yrotation
                JOINT RightForeArmRoll
                {
                  OFFSET 0 7.05482 0
                  CHANNELS 3 Zrotation Xrotation Yrotation
                  JOINT RightHand
                  {
                    OFFSET 0 14.1575 0
                    CHANNELS 3 Zrotation Xrotation Yrotation
                    End Site
                    {
                      OFFSET 0 0 0
                    }
                  }
                }
              }
            }
          }
        }
        JOINT LeftShoulder
        {
          OFFSET 3.70221 9.49509 -0.515508
          CHANNELS 3 Zrotation Xrotation Yrotation
          JOINT LeftArm
          {
            OFFSET 0 12.4537 0
            CHANNELS 3 Zrotation Xrotation Yrotation
            JOINT LeftArmRoll
            {
              OFFSET 0 6.28686 0
              CHANNELS 3 Zrotation Xrotation Yrotation
              JOINT LeftForeArm
              {
                OFFSET 0 18.3114 0
                CHANNELS 3 Zrotation Xrotation Yrotation
                JOINT LeftForeArmRoll
                {
                  OFFSET 0 7.05482 0
                  CHANNELS 3 Zrotation Xrotation Yrotation
                  JOINT LeftHand
                  {
                    OFFSET 0 14.1575 0
                    CHANNELS 3 Zrotation Xrotation Yrotation
                    End Site
                    {
                      OFFSET 0 0 0
                    }
                  }
                }
              }
            }
          }
        }
      }
    }
  }
  JOINT RightUpLeg
  {
    OFFSET -5.66616 -1.03903 -0.87161
    CHANNELS 3 Zrotation Xrotation Yrotation
    JOINT RightUpLegRoll
    {
      OFFSET 0 16.6005 0
      CHANNELS 3 Zrotation Xrotation Yrotation
      JOINT RightLeg
      {
        OFFSET 0 -20.5572 0
        CHANNELS 3 Zrotation Xrotation Yrotation
        JOINT RightLegRoll
        {
          OFFSET 0 20.6244 0
          CHANNELS 3 Zrotation Xrotation Yrotation
          JOINT RightFoot
          {
            OFFSET 0 17.1664 0
            CHANNELS 3 Zrotation Xrotation Yrotation
            JOINT RightToeBase
            {
              OFFSET 0 14.3502 0
              CHANNELS 3 Zrotation Xrotation Yrotation
              End Site
              {
                OFFSET 0.00608252 6.94971 -0.801061
              }
            }
          }
        }
      }
    }
  }
  JOINT LeftUpLeg
  {
    OFFSET 5.66616 -1.03903 -0.87161
    CHANNELS 3 Zrotation Xrotation Yrotation
    JOINT LeftUpLegRoll
    {
      OFFSET 0 16.6006 0
      CHANNELS 3 Zrotation Xrotation Yrotation
      JOINT LeftLeg
      {
        OFFSET 0 20.5571 0
        CHANNELS 3 Zrotation Xrotation Yrotation
        JOINT LeftLegRoll
        {
          OFFSET 0 20.8151 0
          CHANNELS 3 Zrotation Xrotation Yrotation
          JOINT LeftFoot
          {
            OFFSET 0 16.9757 0
            CHANNELS 3 Zrotation Xrotation Yrotation
            JOINT LeftToeBase
            {
              OFFSET 0 14.3502 0
              CHANNELS 3 Zrotation Xrotation Yrotation
              End Site
              {
                OFFSET -0.0272592 6.94971 -0.801061
              }
            }
          }
        }
      }
    }
  }
}
MOTION
Frames: 7
Frame Time: 0.00208333
57.3967 85.5795 7.43097 -1.17409 -0.692962 -1.3689 -0.35879 -1.29148 -0.148238 -0.705503 1.4012 -0.284279 -0.702625 3.0462 -0.27262 6.18684 11.0379 -1.86706 -3.29834 5.0907 -0.129636 63.1836 -5.55901 -3.67948 111.881 17.3883 -3.21164 9.08362e-007 -1.01252e-006 -3.84796e-006 17.2928 7.35809 -1.12987 1.62301e-006 -2.84595e-006 -3.00017 8.02909 -4.9514 0.697695 -50.8151 -5.44666 2.86145 -117.827 12.4874 3.05418 1.61708e-005 1.56403e-006 4.20762e-006 -11.5071 3.27833 0.767774 9.35215e-006 -1.01099e-006 3.00467 -8.02888 -4.95147 -0.697695 178.168 1.88869 -0.0498892 -180 7.01563e-015 178.994 176.185 8.08102 179.768 -2.46362e-006 3.61397e-006 0.0891698 -18.0012 67.2885 18.9592 8.18302 26.0043 -3.48702 -176.986 0.83093 1.60735 4.54188e-006 -4.6773e-006 -1.0496 -1.33833 -8.00706 0.410818 -4.17324e-007 -3.52577e-006 -0.136926 20.0142 69.697 -21.0395 -8.13901 25.279 3.424 
57.3996 85.5752 7.43835 -1.16579 -0.684768 -1.37727 -0.357745 -1.29031 -0.147574 -0.704635 1.40454 -0.281891 -0.701786 3.04955 -0.270246 6.16476 11.0212 -1.85892 -3.28801 5.08375 -0.128759 63.164 -5.5452 -3.67041 111.893 17.3814 -3.25219 9.08362e-007 -1.01252e-006 -3.84796e-006 17.3092 7.40702 -1.13659 1.62301e-006 -2.84595e-006 -3.00017 8.02909 -4.9514 0.697695 -50.8249 -5.46232 2.8735 -117.843 12.5093 3.10799 1.61708e-005 1.56403e-006 4.20762e-006 -11.5295 3.33476 0.774664 9.35215e-006 -1.01099e-006 3.00467 -8.02888 -4.95147 -0.697695 178.166 1.95784 -0.054885 -180 7.01563e-015 178.994 176.199 8.19641 179.767 -2.46362e-006 3.61397e-006 0.090902 -18.0329 67.3331 18.994 8.18731 26.0633 -3.48314 -176.998 0.875605 1.60308 4.54188e-006 -4.6773e-006 -1.0496 -1.34819 -8.11438 0.41049 -4.17324e-007 -3.52577e-006 -0.139696 20.071 69.7615 -21.1031 -8.13906 25.2798 3.42288 
57.4086 85.5666 7.43475 -1.1576 -0.677386 -1.38577 -0.356649 -1.28903 -0.146818 -0.703726 1.40815 -0.279301 -0.700908 3.05315 -0.267669 6.14274 11.0041 -1.85094 -3.27758 5.0773 -0.128042 63.1443 -5.53155 -3.66145 111.905 17.3743 -3.29428 9.08362e-007 -1.01252e-006 -3.84796e-006 17.3264 7.45775 -1.14356 1.62301e-006 -2.84595e-006 -3.00017 8.02909 -4.9514 0.697695 -50.8347 -5.47794 2.88553 -117.859 12.532 3.1618 1.61708e-005 1.56403e-006 4.20762e-006 -11.5513 3.39307 0.781815 9.35215e-006 -1.01099e-006 3.00467 -8.02888 -4.95147 -0.697695 178.165 2.02693 -0.0597085 -180 7.01563e-015 178.994 176.212 8.31342 179.767 -2.46362e-006 3.61397e-006 0.0926523 -18.0653 67.3784 19.0297 8.19175 26.1247 -3.47946 -177.009 0.918979 1.59762 4.54188e-006 -4.6773e-006 -1.0496 -1.35918 -8.22323 0.41001 -4.17324e-007 -3.52577e-006 -0.142496 20.1299 69.8282 -21.1693 -8.13911 25.2805 3.42191 
57.4009 85.564 7.43077 -1.14949 -0.670571 -1.39436 -0.355516 -1.28766 -0.145996 -0.702787 1.41194 -0.276568 -0.700001 3.05694 -0.264951 6.12074 10.9867 -1.84309 -3.26709 5.07119 -0.127437 63.1247 -5.51801 -3.65255 111.918 17.3672 -3.33745 9.08362e-007 -1.01252e-006 -3.84796e-006 17.3441 7.50975 -1.1507 1.62301e-006 -2.84595e-006 -3.00017 8.02909 -4.9514 0.697695 -50.8445 -5.49354 2.89755 -117.875 12.5551 3.21563 1.61708e-005 1.56403e-006 4.20762e-006 -11.5728 3.45269 0.78915 9.35215e-006 -1.01099e-006 3.00467 -8.02888 -4.95147 -0.697695 178.163 2.09597 -0.0644114 -180 7.01563e-015 178.994 176.226 8.43157 179.766 -2.46362e-006 3.61397e-006 0.0944151 -18.0982 67.4242 19.0659 8.19631 26.1877 -3.47593 -177.02 0.961443 1.59132 4.54188e-006 -4.6773e-006 -1.0496 -1.37094 -8.33314 0.409424 -4.17324e-007 -3.52577e-006 -0.145315 20.1906 69.8964 -21.2375 -8.13915 25.2811 3.42104 
57.405 85.567 7.43095 -1.14143 -0.664081 -1.40301 -0.354362 -1.28625 -0.145137 -0.701832 1.41584 -0.273755 -0.69908 3.06084 -0.262152 6.09877 10.9691 -1.8353 -3.25655 5.06529 -0.126897 63.105 -5.50454 -3.6437 111.93 17.3599 -3.38123 9.08362e-007 -1.01252e-006 -3.84796e-006 17.3621 7.56247 -1.15794 1.62301e-006 -2.84595e-006 -3.00017 8.02909 -4.9514 0.697695 -50.8544 -5.50913 2.90956 -117.891 12.5785 3.26947 1.61708e-005 1.56403e-006 4.20762e-006 -11.594 3.51307 0.796592 9.35215e-006 -1.01099e-006 3.00467 -8.02888 -4.95147 -0.697695 178.161 2.16499 -0.0690457 -180 7.01563e-015 178.994 176.239 8.55036 179.765 -2.46362e-006 3.61397e-006 0.0961852 -18.1315 67.4703 19.1024 8.20093 26.2517 -3.47248 -177.031 1.00339 1.58455 4.54188e-006 -4.6773e-006 -1.0496 -1.38316 -8.44367 0.408777 -4.17324e-007 -3.52577e-006 -0.148147 20.2525 69.9654 -21.307 -8.13919 25.2817 3.42023 
57.4178 85.5736 7.43722 -1.13337 -0.657673 -1.41166 -0.353204 -1.28482 -0.144269 -0.700872 1.41976 -0.270922 -0.698154 3.06476 -0.259334 6.07681 10.9514 -1.82753 -3.246 5.05943 -0.126373 63.0854 -5.49108 -3.63486 111.942 17.3527 -3.42516 9.08362e-007 -1.01252e-006 -3.84796e-006 17.3802 7.61537 -1.16521 1.62301e-006 -2.84595e-006 -3.00017 8.02909 -4.9514 0.697695 -50.8642 -5.52471 2.92158 -117.907 12.6019 3.32332 1.61708e-005 1.56403e-006 4.20762e-006 -11.6152 3.57363 0.804061 9.35215e-006 -1.01099e-006 3.00467 -8.02888 -4.95147 -0.697695 178.16 2.234 -0.0736633 -180 7.01563e-015 178.994 176.252 8.66932 179.764 -2.46362e-006 3.61397e-006 0.0979571 -18.1649 67.5164 19.1392 8.20555 26.3159 -3.46905 -177.041 1.0452 1.57766 4.54188e-006 -4.6773e-006 -1.0496 -1.39549 -8.55435 0.408117 -4.17324e-007 -3.52577e-006 -0.150981 20.3151 70.0345 -21.3772 -8.13923 25.2823 3.41943 
57.4136 85.5681 7.43455 -1.12529 -0.651102 -1.42029 -0.352055 -1.28342 -0.143419 -0.699922 1.42363 -0.268129 -0.697237 3.06863 -0.256555 6.05484 10.9339 -1.81972 -3.23547 5.05348 -0.125816 63.0657 -5.47759 -3.626 111.954 17.3455 -3.46878 9.08362e-007 -1.01252e-006 -3.84796e-006 17.3982 7.66791 -1.17243 1.62301e-006 -2.84595e-006 -3.00017 8.02909 -4.9514 0.697695 -50.8741 -5.5403 2.93359 -117.923 12.6252 3.37718 1.61708e-005 1.56403e-006 4.20762e-006 -11.6365 3.63381 0.81148 9.35215e-006 -1.01099e-006 3.00467 -8.02888 -4.95147 -0.697695 178.158 2.30302 -0.0783159 -180 7.01563e-015 178.994 176.265 8.78795 179.763 -2.46362e-006 3.61397e-006 0.0997253 -18.1985 67.5624 19.1761 8.21014 26.3796 -3.46558 -177.052 1.08727 1.57102 4.54188e-006 -4.6773e-006 -1.0496 -1.4076 -8.66473 0.407489 -4.17324e-007 -3.52577e-006 -0.153809 20.3778 70.1033 -21.4475 -8.13927 25.2829 3.41861 
